<?xml version="1.0" standalone="no"?>
<!DOCTYPE svg PUBLIC "-//W3C//DTD SVG 20010904//EN"
 "http://www.w3.org/TR/2001/REC-SVG-20010904/DTD/svg10.dtd">
<svg version="1.0" xmlns="http://www.w3.org/2000/svg"
 width="512.000000pt" height="512.000000pt" viewBox="0 0 512.000000 512.000000"
 preserveAspectRatio="xMidYMid meet">

<g transform="translate(0.000000,512.000000) scale(0.100000,-0.100000)"
fill="#000000" stroke="none">
<path d="M2372 5099 c-603 -43 -1177 -307 -1611 -740 -995 -995 -995 -2602 0
-3598 996 -995 2603 -995 3598 0 995 997 996 2599 0 3597 -437 439 -1006 697
-1634 742 -155 11 -189 11 -353 -1z m403 -149 c493 -45 958 -240 1340 -563
529 -446 845 -1129 845 -1827 0 -698 -316 -1381 -845 -1827 -675 -569 -1584
-726 -2410 -415 -775 292 -1354 988 -1505 1807 -170 925 215 1862 985 2400
468 326 1029 476 1590 425z"/>
<path d="M1805 4075 c-198 -54 -349 -200 -411 -395 -14 -44 -18 -105 -22 -300
l-4 -246 -51 26 c-42 20 -67 25 -129 25 -86 0 -117 -15 -153 -76 -19 -32 -20
-52 -20 -304 0 -300 2 -310 67 -357 49 -34 163 -33 236 3 l52 26 0 -509 c0
-568 0 -566 64 -593 22 -9 68 -15 121 -15 l85 0 0 -110 c0 -128 13 -170 62
-200 29 -18 50 -20 178 -20 124 0 149 3 176 19 50 31 64 73 64 200 l0 111 440
0 440 0 0 -111 c0 -127 13 -167 65 -199 28 -18 49 -20 176 -20 127 0 148 2
177 20 49 30 62 72 62 200 l0 110 85 0 c53 0 99 6 121 15 64 27 64 25 64 593
l0 509 50 -25 c74 -36 172 -41 224 -10 22 13 49 39 60 58 20 33 21 51 21 305
0 252 -1 272 -20 304 -36 61 -67 76 -153 76 -62 0 -87 -5 -129 -25 l-51 -26
-4 246 c-5 270 -11 304 -73 415 -67 120 -170 210 -301 262 l-69 28 -725 2
c-590 2 -734 -1 -775 -12z m1446 -135 c194 -37 348 -219 349 -412 l0 -48
-1041 0 -1042 0 6 77 c14 181 161 347 337 382 65 13 1325 13 1391 1z m349
-1084 l0 -484 -37 -6 c-70 -11 -287 -35 -422 -46 l-134 -12 -266 265 c-146
146 -277 270 -289 277 -44 22 -102 -22 -102 -77 0 -10 102 -120 227 -245 l227
-228 -94 0 -94 0 -271 270 c-255 253 -274 270 -308 270 -39 0 -77 -36 -77 -73
0 -14 77 -98 223 -245 l222 -224 -160 6 c-180 8 -446 30 -609 52 -61 8 -111
14 -113 14 -2 0 -3 218 -3 485 l0 485 1040 0 1040 0 0 -484z m-2335 167 c30
-17 72 -65 84 -96 6 -16 11 -70 11 -122 0 -104 -9 -137 -48 -178 -36 -39 -74
-57 -117 -57 l-35 0 0 233 c0 129 2 236 5 239 7 7 75 -6 100 -19z m2695 -219
l0 -234 -35 0 c-61 0 -131 51 -154 113 -16 41 -14 211 3 250 15 38 76 95 109
101 47 11 62 12 70 9 4 -2 7 -110 7 -239z m-2215 -609 c560 -63 1278 -55 1808
21 l47 7 0 -357 0 -356 -1040 0 -1040 0 0 356 0 357 48 -7 c26 -3 106 -12 177
-21z m225 -930 l0 -95 -90 0 -90 0 0 95 0 95 90 0 90 0 0 -95z m1360 0 l0 -95
-90 0 -90 0 0 95 0 95 90 0 90 0 0 -95z"/>
<path d="M1883 3770 c-47 -19 -56 -78 -18 -115 l24 -25 671 0 671 0 24 25 c30
29 32 64 6 96 l-19 24 -669 2 c-373 1 -678 -2 -690 -7z"/>
<path d="M1775 2041 c-96 -43 -145 -118 -145 -221 0 -103 49 -178 145 -221
108 -50 249 3 307 115 30 57 30 155 0 212 -58 112 -199 165 -307 115z m153
-151 c64 -60 25 -160 -63 -160 -81 0 -122 95 -66 154 31 33 96 36 129 6z"/>
<path d="M2293 2045 c-17 -7 -33 -20 -37 -30 -10 -28 -7 -355 4 -375 27 -50
100 -49 125 0 12 22 15 68 15 193 0 148 -2 167 -20 189 -25 32 -49 39 -87 23z"/>
<path d="M2540 2053 c-48 -18 -50 -25 -50 -224 l0 -188 26 -20 c15 -12 34 -21
44 -21 10 0 29 9 44 21 l26 20 0 188 c0 166 -2 190 -17 203 -22 19 -53 28 -73
21z"/>
<path d="M2773 2049 c-49 -18 -55 -44 -51 -233 3 -192 6 -200 65 -212 26 -5
37 -1 57 19 26 26 26 26 26 202 0 97 -4 185 -10 195 -13 24 -59 39 -87 29z"/>
<path d="M3171 2046 c-48 -17 -108 -71 -133 -119 -30 -58 -30 -156 0 -213 94
-183 359 -174 437 13 19 45 19 141 0 186 -48 115 -186 176 -304 133z m150
-162 c56 -59 15 -154 -66 -154 -65 0 -107 52 -91 115 17 66 110 89 157 39z"/>
</g>
</svg>
