<?xml version="1.0" standalone="no"?>
<!DOCTYPE svg PUBLIC "-//W3C//DTD SVG 20010904//EN"
 "http://www.w3.org/TR/2001/REC-SVG-20010904/DTD/svg10.dtd">
<svg version="1.0" xmlns="http://www.w3.org/2000/svg"
 width="512.000000pt" height="512.000000pt" viewBox="0 0 512.000000 512.000000"
 preserveAspectRatio="xMidYMid meet">

<g transform="translate(0.000000,512.000000) scale(0.100000,-0.100000)"
fill="#000000" stroke="none">
<path d="M2372 5099 c-603 -43 -1177 -307 -1611 -740 -995 -995 -995 -2602 0
-3598 996 -995 2603 -995 3598 0 995 997 996 2599 0 3597 -437 439 -1006 697
-1634 742 -155 11 -189 11 -353 -1z m403 -149 c493 -45 958 -240 1340 -563
529 -446 845 -1129 845 -1827 0 -698 -316 -1381 -845 -1827 -675 -569 -1584
-726 -2410 -415 -775 292 -1354 988 -1505 1807 -170 925 215 1862 985 2400
468 326 1029 476 1590 425z"/>
<path d="M2055 3793 c-93 -21 -155 -69 -191 -148 -44 -94 -28 -196 44 -277
l45 -49 -54 -46 c-81 -70 -173 -169 -233 -253 -269 -374 -330 -874 -160 -1302
62 -158 83 -166 228 -88 51 28 97 50 103 50 5 0 15 -18 22 -40 6 -21 31 -69
55 -105 l44 -65 -404 0 -405 0 -24 -25 c-14 -13 -25 -31 -25 -39 0 -28 22 -64
47 -75 34 -16 2792 -16 2826 0 25 11 47 47 47 75 0 8 -11 26 -25 39 l-24 25
-322 0 -321 0 16 23 c48 66 68 103 87 162 19 56 25 65 46 65 69 0 150 80 160
159 12 88 -54 182 -142 205 -46 11 -48 13 -66 70 -23 75 -80 158 -141 207
l-47 37 262 133 c497 251 490 246 490 293 0 61 -187 316 -306 418 -357 306
-806 416 -1245 305 l-90 -23 -6 49 c-9 84 -75 171 -151 202 -36 15 -112 25
-140 18z m111 -177 c28 -28 34 -42 34 -76 0 -34 -6 -48 -34 -76 -38 -38 -77
-44 -125 -19 -26 13 -61 67 -61 95 0 26 34 82 59 95 46 25 89 19 127 -19z
m820 -191 c314 -55 602 -238 784 -497 28 -39 49 -72 48 -73 -2 -1 -316 -161
-698 -355 -382 -194 -865 -440 -1073 -547 -207 -106 -382 -194 -389 -196 -6
-1 -24 36 -40 82 -83 242 -80 549 8 793 148 411 507 715 936 793 102 19 317
18 424 0z m170 -1151 c51 -29 101 -84 125 -138 l18 -41 -159 -3 c-88 -1 -233
-1 -322 0 l-163 3 210 107 c139 71 217 105 230 101 11 -3 39 -16 61 -29z m332
-365 c2 -14 -3 -31 -11 -37 -11 -9 -174 -11 -643 -10 l-629 3 70 37 70 37 570
-2 570 -2 3 -26z m-203 -236 c-34 -80 -112 -150 -195 -173 -20 -6 -209 -10
-450 -10 -467 0 -474 1 -557 74 -36 31 -93 118 -93 141 0 3 295 5 655 5 l655
0 -15 -37z"/>
</g>
</svg>
