<?xml version="1.0" standalone="no"?>
<!DOCTYPE svg PUBLIC "-//W3C//DTD SVG 20010904//EN"
 "http://www.w3.org/TR/2001/REC-SVG-20010904/DTD/svg10.dtd">
<svg version="1.0" xmlns="http://www.w3.org/2000/svg"
 width="1024.000000pt" height="1024.000000pt" viewBox="0 0 1024.000000 1024.000000"
 preserveAspectRatio="xMidYMid meet">

<g transform="translate(0.000000,1024.000000) scale(0.100000,-0.100000)"
fill="#000000" stroke="none">
<path d="M4839 10060 c-963 -58 -1901 -397 -2664 -965 -372 -276 -754 -658
-1030 -1030 -308 -413 -550 -879 -715 -1375 -177 -529 -253 -1004 -253 -1570
0 -349 20 -578 78 -898 135 -733 447 -1452 890 -2047 276 -372 658 -754 1030
-1030 1485 -1105 3492 -1282 5149 -454 500 251 890 532 1291 934 312 311 524
580 748 950 100 165 277 520 346 695 457 1151 476 2398 56 3552 -505 1387
-1631 2494 -3027 2973 -387 133 -776 215 -1199 254 -159 15 -535 21 -700 11z
m725 -335 c1404 -141 2630 -877 3413 -2050 832 -1245 1001 -2853 446 -4255
-328 -829 -885 -1542 -1614 -2065 -1195 -858 -2752 -1092 -4153 -624 -1076
359 -1985 1104 -2550 2087 -334 582 -526 1193 -597 1907 -16 155 -16 635 0
790 62 616 203 1123 456 1640 409 833 1054 1521 1865 1986 630 361 1310 557
2095 603 113 7 498 -5 639 -19z"/>
<path d="M4968 8700 c-256 -46 -425 -211 -486 -477 -44 -184 -44 -207 -49
-1365 l-5 -1116 -1346 -632 c-741 -348 -1367 -642 -1392 -654 -74 -34 -184
-151 -225 -237 -47 -101 -55 -165 -55 -441 l0 -238 28 6 c15 2 238 41 497 85
259 44 547 93 640 109 94 16 292 50 440 75 149 25 358 61 465 80 107 18 357
61 555 95 198 33 368 63 378 66 16 5 17 -33 15 -731 l-3 -736 -236 -112 c-130
-62 -263 -125 -296 -140 -117 -55 -221 -171 -262 -295 -19 -55 -21 -85 -21
-300 l0 -239 33 5 c17 3 357 55 754 116 l722 112 728 -112 c400 -62 741 -115
756 -118 l28 -6 -3 253 c-3 236 -5 256 -26 309 -32 78 -103 170 -167 216 -29
20 -181 98 -339 172 l-286 135 0 737 c0 696 1 736 18 732 9 -2 679 -117 1487
-255 809 -137 1480 -253 1493 -256 l22 -5 0 248 c0 332 -15 400 -113 530 -42
55 -139 135 -183 150 -23 8 -410 189 -2281 1069 l-441 207 -5 1117 c-3 783 -8
1140 -16 1196 -53 360 -178 542 -425 621 -67 22 -104 27 -216 30 -74 1 -156
-1 -182 -6z m333 -342 c96 -44 136 -119 170 -323 9 -50 14 -420 18 -1284 l6
-1214 1215 -571 c668 -314 1325 -622 1460 -685 311 -144 340 -171 340 -314 0
-48 -1 -48 -27 -43 -16 3 -134 24 -263 46 -432 74 -1581 270 -1905 325 -176
30 -434 75 -572 99 l-253 43 0 -1026 0 -1027 318 -151 c174 -84 342 -163 372
-177 78 -34 130 -94 130 -150 0 -15 -6 -26 -13 -26 -7 0 -276 40 -597 90
l-583 90 -581 -90 c-319 -50 -586 -90 -593 -90 -8 0 -13 13 -13 33 0 52 48
110 117 142 152 72 442 209 566 268 l137 66 0 1024 c0 971 -1 1025 -17 1021
-10 -2 -677 -116 -1483 -254 -806 -138 -1477 -253 -1493 -256 -26 -5 -27 -5
-27 42 0 107 47 180 144 224 65 29 593 276 2001 938 l870 408 6 1215 c6 1201
8 1269 40 1394 49 192 129 247 349 241 88 -2 114 -6 161 -28z"/>
</g>
</svg>
