<?xml version="1.0" standalone="no"?>
<!DOCTYPE svg PUBLIC "-//W3C//DTD SVG 20010904//EN"
 "http://www.w3.org/TR/2001/REC-SVG-20010904/DTD/svg10.dtd">
<svg version="1.0" xmlns="http://www.w3.org/2000/svg"
 width="512.000000pt" height="512.000000pt" viewBox="0 0 512.000000 512.000000"
 preserveAspectRatio="xMidYMid meet">

<g transform="translate(0.000000,512.000000) scale(0.100000,-0.100000)"
fill="#000000" stroke="none">
<path d="M2365 5113 c-401 -34 -822 -171 -1145 -373 -325 -203 -637 -515 -840
-840 -179 -286 -309 -655 -362 -1025 -17 -118 -17 -512 0 -630 42 -295 120
-553 242 -800 128 -262 264 -456 464 -662 208 -216 419 -371 691 -508 249
-127 504 -207 790 -251 148 -22 531 -26 670 -6 578 83 1062 316 1464 707 663
643 926 1570 701 2465 -43 170 -104 334 -186 499 -124 250 -263 447 -458 648
-210 218 -417 370 -691 509 -296 149 -589 233 -920 264 -102 9 -327 11 -420 3z
m590 -132 c793 -136 1448 -623 1804 -1340 163 -329 238 -633 248 -1007 6 -231
-5 -370 -47 -574 -75 -364 -253 -742 -488 -1035 -406 -506 -1019 -839 -1668
-905 -163 -17 -483 -8 -639 19 -788 134 -1449 625 -1804 1340 -78 159 -154
366 -190 521 -47 205 -56 295 -56 560 0 334 24 490 122 785 141 424 434 843
788 1127 330 265 753 450 1165 512 163 24 161 24 410 21 181 -2 262 -8 355
-24z"/>
<path d="M1297 3822 c-16 -17 -17 -119 -17 -1264 0 -1193 1 -1246 18 -1261 17
-16 119 -17 1265 -17 1119 0 1247 2 1261 16 14 14 16 142 16 1263 0 1196 -1
1249 -18 1264 -17 16 -119 17 -1264 17 -1193 0 -1246 -1 -1261 -18z m2433
-1189 c0 -603 -3 -1093 -7 -1089 -4 4 -174 278 -378 608 -203 331 -377 606
-386 611 -43 27 -57 9 -314 -403 -137 -220 -253 -400 -256 -400 -4 0 -64 105
-134 233 -70 127 -132 238 -138 245 -6 7 -24 12 -41 10 -29 -3 -47 -29 -349
-528 -175 -289 -322 -526 -327 -528 -7 -2 -10 412 -10 1167 l0 1171 1170 0
1170 0 0 -1097z m-464 -555 c180 -293 349 -568 376 -610 l48 -78 -497 0 -498
0 -123 226 -124 225 39 63 c183 299 439 705 445 706 3 0 154 -240 334 -532z
m-937 -242 c133 -241 240 -440 238 -442 -2 -2 -235 -3 -518 -2 l-515 3 270
447 c149 246 274 444 278 440 3 -4 115 -204 247 -446z"/>
<path d="M1778 3504 c-32 -10 -64 -31 -97 -64 -102 -102 -107 -250 -14 -360
68 -79 180 -109 287 -78 55 16 148 109 164 164 31 107 1 219 -78 287 -75 64
-164 81 -262 51z m162 -109 c63 -33 99 -115 80 -184 -14 -52 -75 -107 -129
-116 -54 -9 -126 25 -159 75 -30 45 -28 130 6 177 41 58 138 81 202 48z"/>
</g>
</svg>
