<?xml version="1.0" standalone="no"?>
<!DOCTYPE svg PUBLIC "-//W3C//DTD SVG 20010904//EN"
 "http://www.w3.org/TR/2001/REC-SVG-20010904/DTD/svg10.dtd">
<svg version="1.0" xmlns="http://www.w3.org/2000/svg"
 width="512.000000pt" height="512.000000pt" viewBox="0 0 512.000000 512.000000"
 preserveAspectRatio="xMidYMid meet">

<g transform="translate(0.000000,512.000000) scale(0.100000,-0.100000)"
fill="#000000" stroke="none">
<path d="M2372 5099 c-603 -43 -1177 -307 -1611 -740 -995 -995 -995 -2602 0
-3598 996 -995 2603 -995 3598 0 515 516 789 1232 742 1936 -6 94 -20 226 -32
293 -133 785 -640 1474 -1351 1836 -318 162 -632 248 -993 274 -155 11 -189
11 -353 -1z m403 -149 c399 -37 777 -170 1106 -389 291 -194 513 -418 697
-703 196 -304 340 -710 367 -1038 3 -41 8 -90 11 -107 l5 -33 -500 0 -500 0
-10 38 c-6 20 -48 195 -95 388 -52 215 -96 376 -114 415 -140 305 -481 426
-730 258 -45 -30 -47 -31 -72 -14 -263 172 -571 90 -717 -191 -53 -103 -47
-79 -302 -1073 -121 -469 -222 -856 -225 -859 -3 -2 -55 1 -116 8 -178 21
-332 1 -465 -59 -70 -32 -92 -61 -81 -105 3 -14 18 -33 32 -43 25 -16 29 -16
73 1 162 63 147 60 316 60 154 0 169 -2 413 -53 297 -61 424 -75 564 -60 89 9
204 37 235 57 20 13 31 55 21 83 -16 47 -49 53 -149 27 -48 -12 -91 -19 -95
-16 -7 8 4 58 61 273 19 72 119 461 224 866 182 708 222 846 243 833 25 -15
56 -126 133 -466 l82 -368 -83 0 c-124 0 -179 -15 -224 -60 -54 -54 -63 -108
-58 -334 4 -193 9 -216 60 -263 39 -37 92 -53 173 -53 l75 0 -2 -872 -3 -873
-115 -22 c-437 -83 -877 -44 -1310 117 -157 58 -450 214 -433 231 17 17 175
27 272 18 53 -5 209 -32 346 -61 246 -51 253 -52 430 -52 181 -1 257 10 334
47 36 17 52 52 39 89 -17 48 -45 54 -145 30 -184 -43 -293 -38 -618 28 -104
22 -233 46 -285 55 -177 28 -364 15 -490 -35 l-47 -18 -99 83 c-54 46 -123
108 -152 138 l-53 54 98 6 c69 4 157 21 295 56 108 27 233 55 279 62 123 18
252 7 376 -32 81 -26 110 -31 131 -23 31 11 48 50 38 88 -8 34 -80 68 -200 96
-192 44 -323 36 -626 -42 -281 -72 -385 -75 -522 -16 -42 18 -55 32 -120 132
-334 511 -459 1136 -348 1741 114 619 468 1169 985 1530 468 326 1029 476
1590 425z m28 -1276 c31 -16 57 -33 57 -39 0 -5 -10 -26 -21 -45 -38 -62 -66
-151 -149 -468 -44 -171 -80 -313 -80 -316 0 -3 -103 -6 -230 -6 -126 0 -230
1 -230 3 0 1 36 140 80 309 45 178 92 334 109 370 52 109 130 183 226 215 63
21 170 10 238 -23z m591 7 c106 -47 194 -149 235 -274 17 -51 75 -285 166
-670 l13 -57 -236 2 -236 3 -8 35 c-4 19 -44 195 -88 390 -70 315 -84 365
-122 440 -24 47 -44 87 -46 90 -4 8 56 41 102 56 57 19 160 12 220 -15z m-828
-1046 c-3 -9 -13 -44 -21 -78 -9 -34 -21 -79 -26 -99 l-10 -38 -230 0 c-204 0
-230 2 -225 15 3 9 13 44 21 78 9 34 21 79 26 100 l10 37 230 0 c204 0 230 -2
225 -15z m2389 -202 c-4 -54 -13 -145 -21 -202 -8 -58 -14 -106 -14 -108 0 -2
-436 -3 -969 -3 -874 0 -969 2 -975 16 -12 31 -7 369 6 382 9 9 244 12 996 12
l984 0 -7 -97z m-2492 -190 c-3 -16 -18 -75 -33 -133 l-26 -105 -227 -3 c-198
-2 -227 0 -227 13 0 8 14 69 32 135 l31 120 229 0 228 0 -7 -27z m2397 -365
c-129 -440 -398 -853 -745 -1145 -206 -174 -467 -328 -718 -422 -59 -23 -109
-41 -112 -41 -3 0 -5 383 -5 850 l0 850 804 0 804 0 -28 -92z m-2500 -30 c0
-17 -78 -309 -83 -315 -10 -10 -402 57 -428 73 -6 3 35 180 56 242 3 9 58 12
230 12 173 0 225 -3 225 -12z"/>
<path d="M2910 1190 c-151 -93 -318 -135 -504 -128 -116 5 -120 5 -144 -19
-19 -19 -23 -31 -18 -55 9 -45 21 -55 77 -67 194 -42 550 45 702 170 47 39 51
86 11 118 -37 29 -50 27 -124 -19z"/>
</g>
</svg>
