<?xml version="1.0" standalone="no"?>
<!DOCTYPE svg PUBLIC "-//W3C//DTD SVG 20010904//EN"
 "http://www.w3.org/TR/2001/REC-SVG-20010904/DTD/svg10.dtd">
<svg version="1.0" xmlns="http://www.w3.org/2000/svg"
 width="512.000000pt" height="512.000000pt" viewBox="0 0 512.000000 512.000000"
 preserveAspectRatio="xMidYMid meet">

<g transform="translate(0.000000,512.000000) scale(0.100000,-0.100000)"
fill="#000000" stroke="none">
<path d="M2372 5099 c-603 -43 -1177 -307 -1611 -740 -995 -995 -995 -2602 0
-3598 996 -995 2603 -995 3598 0 995 997 996 2599 0 3597 -437 439 -1006 697
-1634 742 -155 11 -189 11 -353 -1z m403 -149 c493 -45 958 -240 1340 -563
529 -446 845 -1129 845 -1827 0 -698 -316 -1381 -845 -1827 -675 -569 -1584
-726 -2410 -415 -775 292 -1354 988 -1505 1807 -170 925 215 1862 985 2400
468 326 1029 476 1590 425z"/>
<path d="M860 3720 c-19 -19 -20 -34 -20 -352 -1 -183 -1 -544 -2 -803 0 -258
0 -622 1 -807 1 -324 2 -339 21 -358 27 -27 71 -26 98 3 21 23 22 30 22 290
l0 267 1580 0 1580 0 0 -268 c0 -268 0 -269 23 -290 29 -27 71 -28 97 -2 19
19 20 35 22 358 1 185 1 531 -1 767 -3 417 -4 431 -23 448 -27 23 -73 22 -98
-3 -19 -19 -20 -33 -20 -230 0 -115 -1 -210 -2 -210 -2 1 -28 9 -58 20 l-55
19 -5 103 c-4 80 -11 112 -28 145 -35 66 -78 110 -140 140 l-57 28 -885 3
c-634 2 -892 -1 -911 -9 -49 -20 -60 -98 -17 -126 7 -4 414 -10 905 -13 881
-5 892 -5 919 -26 55 -41 67 -68 72 -159 l5 -85 -1097 0 -1096 0 35 45 c39 51
65 128 65 190 0 92 -54 207 -123 259 -47 36 -335 197 -390 218 -68 26 -167 24
-239 -6 l-58 -24 0 222 c0 220 0 223 -23 244 -29 27 -71 28 -97 2z m521 -657
c181 -100 226 -133 245 -179 35 -85 0 -195 -74 -233 -92 -46 -119 -40 -345 88
-181 102 -210 130 -223 209 -17 111 87 220 199 208 24 -3 100 -38 198 -93z
m-251 -495 c-38 -4 -86 -14 -106 -23 -20 -8 -38 -15 -40 -15 -2 0 -4 38 -4 84
l0 85 110 -62 110 -62 -70 -7z m2931 -170 c60 -34 80 -85 77 -194 l-3 -89
-1575 0 -1575 0 -3 89 c-3 108 17 160 75 194 l38 22 1464 0 1463 0 39 -22z"/>
</g>
</svg>
