<?xml version="1.0" standalone="no"?>
<!DOCTYPE svg PUBLIC "-//W3C//DTD SVG 20010904//EN"
 "http://www.w3.org/TR/2001/REC-SVG-20010904/DTD/svg10.dtd">
<svg version="1.0" xmlns="http://www.w3.org/2000/svg"
 width="512.000000pt" height="512.000000pt" viewBox="0 0 512.000000 512.000000"
 preserveAspectRatio="xMidYMid meet">

<g transform="translate(0.000000,512.000000) scale(0.100000,-0.100000)"
fill="#000000" stroke="none">
<path d="M2354 5080 c-220 -19 -464 -73 -659 -144 -141 -52 -402 -183 -520
-262 -613 -407 -1014 -1037 -1122 -1759 -24 -168 -24 -542 0 -710 108 -722
509 -1352 1122 -1759 118 -79 379 -210 520 -262 141 -51 336 -100 500 -126
185 -28 521 -30 700 -4 308 45 563 126 830 265 235 121 421 257 611 446 211
209 354 407 484 670 92 187 139 310 186 490 58 224 77 378 77 635 0 257 -19
411 -77 635 -47 180 -94 303 -186 490 -130 263 -273 461 -484 670 -385 382
-872 626 -1409 706 -150 22 -437 32 -573 19z m406 -111 c409 -37 799 -171
1120 -384 596 -397 974 -993 1077 -1700 23 -164 23 -486 0 -650 -35 -237 -99
-458 -197 -678 -78 -173 -53 -157 -245 -157 l-165 0 30 46 c41 65 53 136 53
304 0 159 -21 298 -68 445 -33 102 -139 318 -204 415 -353 530 -1028 972
-1746 1145 -288 70 -269 68 -1127 72 -428 2 -778 8 -778 12 0 13 126 189 195
271 94 113 287 296 405 383 479 358 1073 529 1650 476z m-720 -1259 c112 -12
322 -49 333 -60 4 -4 26 -156 47 -338 30 -253 46 -350 65 -409 79 -237 267
-409 515 -471 41 -11 334 -57 650 -103 316 -45 578 -87 583 -93 11 -17 55
-166 63 -213 l7 -43 -391 0 c-424 0 -422 0 -422 -55 0 -55 -3 -55 429 -55
l398 0 7 -50 c4 -28 4 -55 1 -60 -4 -6 -121 -10 -299 -10 -278 0 -294 -1 -311
-20 -23 -26 -13 -68 21 -80 14 -6 150 -10 306 -10 l281 0 -7 -46 c-14 -105
-74 -163 -191 -183 -41 -7 -386 -11 -1023 -11 l-962 0 -2 943 -3 942 -22 48
c-27 58 -63 102 -113 140 -79 58 -84 58 -577 58 -442 0 -453 0 -503 -22 -27
-12 -64 -37 -80 -56 -63 -72 -60 -11 -60 -1079 l0 -974 -170 0 -170 0 -45 90
c-62 123 -120 272 -155 398 -17 58 -30 107 -30 109 0 2 46 3 103 3 87 0 110 3
147 23 24 12 53 35 64 50 20 28 21 40 21 487 0 447 -1 459 -21 487 -11 15 -40
38 -64 51 -37 19 -60 22 -147 22 -57 0 -103 1 -103 3 0 2 13 51 30 109 35 126
93 275 155 398 l45 90 753 0 c420 0 794 -5 847 -10z m690 -168 c152 -56 396
-173 526 -253 222 -135 355 -239 530 -414 151 -150 233 -252 326 -405 49 -80
56 -95 41 -98 -19 -3 -937 128 -1069 152 -258 49 -450 223 -508 461 -14 54
-76 560 -76 611 l0 22 88 -28 c48 -15 112 -37 142 -48z m-1330 -1132 l0 -1010
-255 0 -255 0 0 971 0 971 39 39 39 39 216 0 216 0 0 -1010z m506 991 c49 -22
97 -78 113 -130 8 -28 11 -297 11 -955 l0 -916 -260 0 -260 0 0 1010 0 1010
178 0 c151 0 183 -3 218 -19z m-1482 -407 c14 -13 16 -67 16 -434 0 -367 -2
-421 -16 -434 -12 -13 -39 -16 -124 -16 -60 0 -111 3 -113 8 -16 24 -39 289
-39 442 0 153 23 418 39 443 2 4 53 7 113 7 85 0 112 -3 124 -16z m4186 -1713
c0 -13 -125 -187 -195 -271 -94 -113 -287 -296 -405 -384 -647 -483 -1483
-614 -2241 -350 -478 166 -895 481 -1193 903 -36 51 -66 98 -66 102 0 5 893 9
2050 9 1157 0 2050 -4 2050 -9z"/>
<path d="M1222 2784 l-22 -15 0 -353 c0 -385 -1 -381 57 -374 51 6 53 22 51
386 l-3 334 -24 19 c-28 23 -31 23 -59 3z"/>
<path d="M1632 2784 l-22 -15 0 -345 c0 -219 4 -352 10 -365 7 -13 21 -19 45
-19 24 0 38 6 45 19 16 30 14 693 -2 713 -20 25 -51 30 -76 12z"/>
</g>
</svg>
