<?xml version="1.0" standalone="no"?>
<!DOCTYPE svg PUBLIC "-//W3C//DTD SVG 20010904//EN"
 "http://www.w3.org/TR/2001/REC-SVG-20010904/DTD/svg10.dtd">
<svg version="1.0" xmlns="http://www.w3.org/2000/svg"
 width="512.000000pt" height="512.000000pt" viewBox="0 0 512.000000 512.000000"
 preserveAspectRatio="xMidYMid meet">

<g transform="translate(0.000000,512.000000) scale(0.100000,-0.100000)"
fill="#000000" stroke="none">
<path d="M2354 5080 c-220 -19 -464 -73 -659 -144 -141 -52 -402 -183 -520
-262 -556 -370 -941 -928 -1085 -1574 -74 -333 -74 -747 0 -1080 144 -646 529
-1204 1085 -1574 118 -79 379 -210 520 -262 141 -51 336 -100 500 -126 185
-28 521 -30 700 -4 463 67 863 237 1235 525 190 146 430 415 574 641 64 100
186 351 232 475 51 140 100 335 126 500 17 112 21 184 21 365 0 257 -19 411
-77 635 -47 180 -94 303 -186 490 -130 263 -273 461 -484 670 -385 382 -872
626 -1409 706 -150 22 -437 32 -573 19z m406 -111 c409 -37 799 -171 1120
-384 596 -397 974 -993 1077 -1700 25 -178 23 -495 -5 -680 -12 -77 -27 -159
-34 -183 l-13 -44 -355 529 c-331 492 -357 528 -386 531 -29 3 -40 -9 -249
-278 -121 -154 -222 -277 -226 -273 -5 5 -91 157 -192 338 -572 1026 -761
1361 -771 1367 -6 4 -23 8 -37 8 -22 0 -86 -83 -516 -667 -269 -368 -527 -721
-573 -786 -45 -65 -86 -115 -90 -110 -4 4 -63 106 -130 226 -67 119 -131 222
-141 228 -14 7 -26 6 -44 -3 -13 -7 -236 -266 -496 -576 -329 -393 -475 -559
-480 -550 -11 20 -46 197 -61 308 -16 122 -16 458 0 580 100 753 520 1398
1166 1788 423 254 949 376 1436 331z m185 -1379 c137 -247 251 -453 253 -458
2 -8 -249 -132 -268 -132 -5 0 -30 29 -56 65 -60 82 -74 83 -195 15 -49 -27
-92 -50 -97 -50 -5 0 -18 18 -31 40 -30 54 -48 70 -77 70 -13 0 -144 -36 -291
-80 -147 -43 -269 -78 -271 -76 -4 5 769 1056 777 1056 3 -1 118 -203 256
-450z m883 -1582 c309 -555 562 -1014 562 -1021 0 -23 -268 -278 -380 -361
-648 -483 -1483 -614 -2241 -350 -354 123 -639 303 -915 578 -210 211 -362
421 -475 661 -66 140 -121 293 -112 309 29 47 938 1115 945 1108 4 -4 172
-300 374 -657 201 -358 372 -660 380 -672 28 -44 97 -23 96 30 0 12 -109 215
-242 450 -133 236 -239 434 -236 442 3 8 50 79 105 157 l101 143 317 94 c175
52 323 96 329 98 6 2 26 -19 44 -47 18 -28 44 -58 56 -67 26 -17 28 -16 173
65 l65 36 30 -39 c64 -82 94 -107 118 -99 13 3 93 42 178 84 85 43 158 75 161
72 3 -4 258 -460 567 -1014z m692 347 l348 -518 -30 -86 c-70 -199 -195 -437
-316 -604 l-50 -69 -55 99 c-30 54 -193 345 -361 646 l-306 548 202 259 c113
145 206 256 211 251 5 -5 165 -242 357 -526z"/>
</g>
</svg>
