<?xml version="1.0" standalone="no"?>
<!DOCTYPE svg PUBLIC "-//W3C//DTD SVG 20010904//EN"
 "http://www.w3.org/TR/2001/REC-SVG-20010904/DTD/svg10.dtd">
<svg version="1.0" xmlns="http://www.w3.org/2000/svg"
 width="225.000000pt" height="225.000000pt" viewBox="0 0 225.000000 225.000000"
 preserveAspectRatio="xMidYMid meet">

<g transform="translate(0.000000,225.000000) scale(0.100000,-0.100000)"
fill="#000000" stroke="none">
<path d="M990 2239 c-374 -48 -692 -270 -863 -604 -88 -171 -120 -308 -120
-510 0 -227 47 -400 158 -582 199 -328 527 -522 911 -540 538 -25 999 317
1142 846 23 86 26 115 26 271 0 158 -2 185 -27 280 -32 126 -114 297 -188 395
-246 324 -645 495 -1039 444z m270 -90 c105 -13 266 -65 362 -118 253 -140
430 -368 510 -659 30 -108 32 -371 4 -482 -97 -385 -376 -669 -757 -771 -98
-26 -290 -36 -400 -20 -387 57 -713 332 -834 702 -90 278 -65 556 73 813 203
376 616 588 1042 535z"/>
<path d="M1400 1751 c0 -11 8 -22 18 -25 9 -3 89 -5 177 -5 88 0 164 0 170 0
26 -2 -202 -207 -330 -297 -276 -195 -595 -308 -927 -331 -89 -5 -98 -8 -98
-26 0 -19 5 -20 117 -14 416 19 846 214 1170 530 l103 100 2 -179 c3 -171 4
-179 23 -179 19 0 20 8 23 200 1 110 0 210 -3 223 -5 22 -6 22 -225 22 -211 0
-220 -1 -220 -19z"/>
<path d="M1580 885 c0 -398 0 -405 20 -405 20 0 20 7 20 405 0 398 0 405 -20
405 -20 0 -20 -7 -20 -405z"/>
<path d="M1262 803 c3 -310 3 -318 23 -318 20 0 20 7 20 315 l0 315 -23 3 -22
3 2 -318z"/>
<path d="M949 1013 c-2 -10 -3 -134 -1 -275 3 -249 3 -258 22 -258 19 0 20 8
20 275 0 263 -1 275 -19 275 -10 0 -20 -8 -22 -17z"/>
<path d="M637 1004 c-4 -4 -7 -124 -7 -266 0 -252 0 -258 20 -258 20 0 20 5
18 262 -3 248 -7 285 -31 262z"/>
</g>
</svg>
