<?xml version="1.0" standalone="no"?>
<!DOCTYPE svg PUBLIC "-//W3C//DTD SVG 20010904//EN"
 "http://www.w3.org/TR/2001/REC-SVG-20010904/DTD/svg10.dtd">
<svg version="1.0" xmlns="http://www.w3.org/2000/svg"
 width="512.000000pt" height="512.000000pt" viewBox="0 0 512.000000 512.000000"
 preserveAspectRatio="xMidYMid meet">

<g transform="translate(0.000000,512.000000) scale(0.100000,-0.100000)"
fill="#000000" stroke="none">
<path d="M2391 5109 c-788 -50 -1520 -474 -1958 -1134 -253 -381 -394 -802
-423 -1265 -55 -893 368 -1754 1110 -2259 475 -323 1019 -474 1591 -440 251
15 499 65 714 144 141 51 422 192 540 271 386 257 683 595 886 1009 91 186
137 309 180 473 165 638 84 1301 -227 1872 -375 689 -1049 1171 -1816 1299
-105 18 -411 44 -458 39 -8 0 -71 -4 -139 -9z m498 -214 c246 -35 478 -107
706 -219 476 -234 841 -598 1075 -1071 171 -345 244 -657 244 -1045 0 -222
-14 -346 -61 -545 -114 -483 -399 -945 -775 -1258 -348 -288 -744 -465 -1198
-534 -158 -23 -482 -23 -640 0 -439 67 -839 241 -1168 509 -467 380 -772 930
-853 1538 -17 123 -17 458 0 580 108 799 587 1471 1296 1820 278 137 534 210
838 240 122 12 406 4 536 -15z"/>
<path d="M3644 4016 l-34 -34 0 -1422 0 -1422 34 -34 c33 -33 36 -34 116 -34
80 0 83 1 116 34 l34 34 0 1422 0 1422 -34 34 c-33 33 -36 34 -116 34 -80 0
-83 -1 -116 -34z"/>
<path d="M2044 2846 l-34 -34 0 -837 0 -837 34 -34 c33 -33 36 -34 116 -34 80
0 83 1 116 34 l34 34 0 837 0 837 -34 34 c-33 33 -36 34 -116 34 -80 0 -83 -1
-116 -34z"/>
<path d="M2844 2546 l-34 -34 0 -687 0 -687 34 -34 c33 -33 36 -34 116 -34 80
0 83 1 116 34 l34 34 0 687 0 687 -34 34 c-33 33 -36 34 -116 34 -80 0 -83 -1
-116 -34z"/>
<path d="M1244 2216 l-34 -34 0 -522 0 -522 34 -34 c33 -33 36 -34 116 -34 80
0 83 1 116 34 l34 34 0 522 0 522 -34 34 c-33 33 -36 34 -116 34 -80 0 -83 -1
-116 -34z"/>
</g>
</svg>
