<?xml version="1.0" standalone="no"?>
<!DOCTYPE svg PUBLIC "-//W3C//DTD SVG 20010904//EN"
 "http://www.w3.org/TR/2001/REC-SVG-20010904/DTD/svg10.dtd">
<svg version="1.0" xmlns="http://www.w3.org/2000/svg"
 width="512.000000pt" height="512.000000pt" viewBox="0 0 512.000000 512.000000"
 preserveAspectRatio="xMidYMid meet">

<g transform="translate(0.000000,512.000000) scale(0.100000,-0.100000)"
fill="#000000" stroke="none">
<path d="M2354 5080 c-220 -19 -464 -73 -659 -144 -141 -52 -402 -183 -520
-262 -556 -370 -941 -928 -1085 -1574 -74 -333 -74 -747 0 -1080 144 -646 529
-1204 1085 -1574 118 -79 379 -210 520 -262 141 -51 336 -100 500 -126 185
-28 521 -30 700 -4 308 45 563 126 830 265 235 121 421 257 611 446 211 209
354 407 484 670 92 187 139 310 186 490 58 224 77 378 77 635 0 257 -19 411
-77 635 -47 180 -94 303 -186 490 -130 263 -273 461 -484 670 -385 382 -872
626 -1409 706 -150 22 -437 32 -573 19z m406 -111 c409 -37 799 -171 1120
-384 596 -397 974 -993 1077 -1700 23 -164 23 -486 0 -650 -61 -415 -215 -791
-463 -1125 -102 -138 -349 -385 -489 -487 -123 -92 -347 -226 -377 -227 -16
-1 -78 87 -283 399 l-262 400 71 25 c171 61 308 179 384 330 80 160 76 102 80
975 2 529 0 801 -8 845 -28 169 -149 311 -316 371 -53 20 -86 22 -339 27
l-279 5 -158 150 c-87 83 -158 153 -158 156 1 3 80 57 176 120 97 63 182 120
190 128 30 30 2 93 -41 93 -6 0 -113 -67 -237 -149 -221 -145 -250 -171 -231
-205 4 -7 73 -76 152 -152 l144 -139 -314 -6 c-287 -6 -319 -8 -373 -28 -169
-61 -287 -199 -316 -369 -7 -47 -10 -303 -7 -847 3 -873 -1 -814 78 -975 59
-119 170 -229 289 -287 47 -23 93 -44 103 -47 18 -6 27 9 -359 -578 -82 -126
-154 -228 -159 -228 -19 0 -250 145 -351 220 -129 96 -380 348 -475 475 -418
562 -576 1257 -439 1936 134 661 547 1243 1134 1597 423 254 949 376 1436 331z
m439 -1320 c152 -24 266 -130 301 -281 5 -24 10 -87 10 -140 l0 -97 -42 24
c-78 43 -123 45 -908 45 -785 0 -830 -2 -907 -45 l-43 -24 0 97 c0 53 5 116
10 140 34 146 150 257 292 281 76 12 1208 13 1287 0z m211 -589 c32 -18 52
-38 68 -70 22 -43 22 -51 22 -411 l0 -367 -23 -6 c-95 -23 -623 -56 -917 -56
-295 0 -790 30 -912 56 l-28 6 0 367 c0 361 0 368 23 411 23 46 64 77 120 91
18 4 385 7 817 6 l785 -2 45 -25z m-1650 -980 c472 -53 1360 -45 1719 16 l34
5 -5 -173 c-4 -144 -9 -184 -27 -238 -66 -191 -218 -332 -411 -381 -79 -20
-940 -20 -1020 0 -184 46 -343 191 -407 372 -24 66 -27 92 -31 247 l-4 173 33
-5 c19 -3 72 -10 119 -16z m804 -900 l401 0 27 -45 28 -45 -486 0 c-267 0
-484 3 -482 8 2 4 14 26 28 50 22 38 28 42 54 38 16 -4 209 -6 430 -6z m599
-306 c37 -59 66 -108 64 -110 -2 -2 -317 -3 -700 -2 l-697 3 70 108 69 107
563 0 563 0 68 -106z m243 -371 c53 -81 98 -153 101 -158 4 -12 -148 -71 -284
-110 -443 -129 -947 -122 -1383 17 -109 34 -270 99 -270 108 0 5 41 72 91 149
l92 141 778 0 778 0 97 -147z"/>
<path d="M1802 3448 c-7 -7 -12 -24 -12 -38 0 -47 12 -50 186 -50 172 0 194 6
194 50 0 44 -22 50 -194 50 -113 0 -166 -4 -174 -12z"/>
<path d="M2966 3444 c-9 -8 -16 -24 -16 -34 0 -44 22 -50 194 -50 174 0 186 3
186 50 0 47 -12 50 -186 50 -134 0 -165 -3 -178 -16z"/>
<path d="M2000 1931 c-112 -36 -165 -109 -158 -221 4 -78 30 -124 93 -168 35
-24 50 -27 116 -27 64 0 81 4 112 25 63 42 91 93 95 170 6 97 -31 161 -115
204 -40 20 -109 28 -143 17z m95 -116 c65 -31 78 -114 26 -166 -65 -65 -171
-20 -171 73 1 49 14 71 56 93 36 19 48 19 89 0z"/>
<path d="M3020 1931 c-112 -36 -165 -109 -158 -221 4 -78 30 -124 93 -168 35
-24 50 -27 116 -27 64 0 81 4 112 25 63 42 91 93 95 170 6 97 -31 161 -115
204 -40 20 -109 28 -143 17z m122 -138 c22 -21 28 -36 28 -71 0 -61 -40 -102
-100 -102 -108 0 -142 146 -46 195 40 20 83 12 118 -22z"/>
<path d="M2396 1864 c-23 -22 -20 -60 6 -78 18 -13 52 -16 158 -16 148 0 180
10 180 55 0 49 -19 55 -180 55 -122 0 -151 -3 -164 -16z"/>
<path d="M2397 1592 c-22 -24 -21 -55 1 -75 16 -14 43 -17 164 -17 128 0 147
2 161 18 22 24 21 55 -1 75 -16 14 -43 17 -164 17 -128 0 -147 -2 -161 -18z"/>
</g>
</svg>
